<svg id="Grupo_28" data-name="Grupo 28" xmlns="http://www.w3.org/2000/svg" width="38" height="38" viewBox="0 0 38 38">
    <path id="Caminho_27" data-name="Caminho 27" d="M39.973,28.677a1.081,1.081,0,0,0,1.2,0c.37-.247,9.078-6.1,12.286-11.976A7.587,7.587,0,0,0,47.083,5C44,5,41.725,7.554,40.575,8.888,39.425,7.554,37.146,5,34.068,5a7.587,7.587,0,0,0-6.38,11.7C30.9,22.579,39.6,28.43,39.973,28.677ZM34.068,7.168c2.168,0,3.982,2.11,4.957,3.244.606.7.94,1.094,1.55,1.094s.944-.389,1.55-1.094c.974-1.134,2.788-3.244,4.957-3.244a5.418,5.418,0,0,1,4.539,8.383c-.016.025-.032.051-.046.077-2.477,4.576-8.987,9.4-11,10.826-2.014-1.423-8.523-6.251-11-10.826-.014-.026-.03-.052-.046-.077a5.418,5.418,0,0,1,4.539-8.383Z" transform="translate(-17.109 -5)" fill="#707070"/>
    <path id="Caminho_28" data-name="Caminho 28" d="M42.5,58.45c-2.02-1.162-3.714.561-4.352,1.209a48.436,48.436,0,0,1-3.785,3.385,2.884,2.884,0,0,0-1.137-.244c-2.5-.132-6.436-.574-7.421-1.15-1.059-.618-1.907-1.222-2.655-1.754a11.665,11.665,0,0,0-8.073-2.737,10.986,10.986,0,0,0-3.338.657,10.635,10.635,0,0,1-3.289.645,2.41,2.41,0,0,0-2.43,2.386V66.92a2.41,2.41,0,0,0,2.43,2.386,42.511,42.511,0,0,1,6.72.378A25.31,25.31,0,0,1,19.663,72a11.583,11.583,0,0,0,1.719,1,3.71,3.71,0,0,0,1.209.207H33.824a4.157,4.157,0,0,0,2.969-1.827c1.473-2.4,6.754-8.929,6.807-8.995a1.111,1.111,0,0,0,.123-.19A2.829,2.829,0,0,0,42.5,58.45ZM33.823,71.041s-10.628.212-11.6-.1-4.441-2.688-6.355-3.314c-1.423-.466-6.43-.49-7.418-.49a.219.219,0,0,1-.222-.217V60.847a.22.22,0,0,1,.222-.218,12.783,12.783,0,0,0,3.955-.746,9.023,9.023,0,0,1,2.672-.556c3.51,0,4.739.875,6.777,2.324.786.559,1.677,1.193,2.821,1.862a9,9,0,0,0,2.593.8,48.736,48.736,0,0,0,5.866.649h.058a.651.651,0,1,1,0,1.3l-.058,0-8.359.432c-.666-.024-2.237-1.116-3.28-1.841-.27-.188-.534-.369-.793-.545a13.878,13.878,0,0,0-1.6-.97,1.112,1.112,0,0,0-1.481.485,1.076,1.076,0,0,0,.494,1.455,18.937,18.937,0,0,1,2.1,1.345c1.657,1.152,3.222,2.241,4.578,2.241h.058l8.37-.433a2.849,2.849,0,0,0,2.84-2.819,2.755,2.755,0,0,0-.184-.993,49.917,49.917,0,0,0,3.855-3.46c.941-.957,1.316-1.035,1.647-.845a.725.725,0,0,1,.394.829c-.734.91-5.425,6.744-6.88,9.114A2.3,2.3,0,0,1,33.823,71.041Z" transform="translate(-6.021 -35.211)" fill="#707070"/>
</svg>